<svg xmlns="http://www.w3.org/2000/svg" xmlns:xlink="http://www.w3.org/1999/xlink" xmlns:inkscape="http://www.inkscape.org/namespaces/inkscape" version="1.1" width="100.5" height="87.75" viewBox="0 0 100.5 87.75">
<defs>
<clipPath id="clip_0">
<path transform="matrix(1,0,0,-1,0,87.75)" d="M0 .000022888H100.5V87.75002H0Z" clip-rule="evenodd"/>
</clipPath>
<clipPath id="clip_1">
<path transform="matrix(1,0,0,-1,0,87.75)" d="M-.000000119 .000022888H100.5V87.75002H-.000000119Z" clip-rule="evenodd"/>
</clipPath>
</defs>
<g>
<g clip-path="url(#clip_0)">
<path transform="matrix(1,0,0,-1,0,87.75)" d="M0-.093124H100.5V87.74988H0Z" fill="#ffffff" fill-rule="evenodd"/>
</g>
<path transform="matrix(1,0,0,-1,0,87.75)" d="M49.564 50.65C42.828 50.65 37.367 44.85 37.367 37.696 37.367 35.013 38.135 32.52 39.45 30.453L40.768 28.757 40.697 28.868C40.566 29.198 40.493 29.561 40.493 29.941 40.493 31.464 41.655 32.698 43.088 32.698 43.447 32.698 43.788 32.62 44.098 32.481L44.763 32.005 44.891 32.2 43.892 32.916C42.651 34.234 41.883 36.055 41.883 38.067 41.883 42.09 44.954 45.352 48.742 45.352 49.689 45.352 50.591 45.148 51.411 44.779L52.612 43.919 52.656 43.986 53.128 43.648C53.439 43.509 53.78 43.432 54.138 43.432L54.268 43.459 54.375 43.436C55.809 43.436 56.971 44.67 56.971 46.193 56.971 46.573 56.898 46.936 56.767 47.266L56.325 47.961 58.106 46.638 58.141 46.606C60.355 44.255 61.725 41.006 61.725 37.418L61.499 35.037 61.513 35.085C61.675 35.928 61.761 36.801 61.761 37.696 61.761 44.85 56.3 50.65 49.564 50.65ZM49.825 60.439C61.651 60.439 71.238 50.256 71.238 37.696 71.238 25.135 61.651 14.953 49.825 14.953 37.999 14.953 28.411 25.135 28.411 37.696 28.411 50.256 37.999 60.439 49.825 60.439ZM49.989 64.284C32.21 64.284 17.797 52.532 17.797 38.035 17.797 23.538 32.21 11.786 49.989 11.786 67.769 11.786 82.182 23.538 82.182 38.035 82.182 52.532 67.769 64.284 49.989 64.284ZM35.623 87.75H64.997C69.552 87.75 73.244 84.739 73.244 81.026V72.71H88.349C94.645 72.71 99.75 68.548 99.75 63.414V9.9538C99.75 4.8197 94.645 .65762 88.349 .65762H12.151C5.8544 .65762 .75002 4.8197 .75002 9.9538V63.414C.75002 68.548 5.8544 72.71 12.151 72.71H27.377V81.026C27.377 84.739 31.069 87.75 35.623 87.75Z" fill="#d1e7c3" fill-rule="evenodd"/>
<g clip-path="url(#clip_1)">
<path transform="matrix(1,0,0,-1,0,87.75)" stroke-width="1.4979" stroke-linecap="butt" stroke-miterlimit="10" stroke-linejoin="miter" fill="none" stroke="#000000" d="M49.564 50.65C42.828 50.65 37.367 44.85 37.367 37.696 37.367 35.013 38.135 32.52 39.45 30.453L40.768 28.757 40.697 28.868C40.566 29.198 40.493 29.561 40.493 29.941 40.493 31.464 41.655 32.698 43.088 32.698 43.447 32.698 43.788 32.62 44.098 32.481L44.763 32.005 44.891 32.2 43.892 32.916C42.651 34.234 41.883 36.055 41.883 38.067 41.883 42.09 44.954 45.352 48.742 45.352 49.689 45.352 50.591 45.148 51.411 44.779L52.612 43.919 52.656 43.986 53.128 43.648C53.439 43.509 53.78 43.432 54.138 43.432L54.268 43.459 54.375 43.436C55.809 43.436 56.971 44.67 56.971 46.193 56.971 46.573 56.898 46.936 56.767 47.266L56.325 47.961 58.106 46.638 58.141 46.606C60.355 44.255 61.725 41.006 61.725 37.418L61.499 35.037 61.513 35.085C61.675 35.928 61.761 36.801 61.761 37.696 61.761 44.85 56.3 50.65 49.564 50.65ZM49.825 60.439C61.651 60.439 71.238 50.256 71.238 37.696 71.238 25.135 61.651 14.953 49.825 14.953 37.999 14.953 28.411 25.135 28.411 37.696 28.411 50.256 37.999 60.439 49.825 60.439ZM49.989 64.284C32.21 64.284 17.797 52.532 17.797 38.035 17.797 23.538 32.21 11.786 49.989 11.786 67.769 11.786 82.182 23.538 82.182 38.035 82.182 52.532 67.769 64.284 49.989 64.284ZM35.623 87.75H64.997C69.552 87.75 73.244 84.739 73.244 81.026V72.71H88.349C94.645 72.71 99.75 68.548 99.75 63.414V9.9538C99.75 4.8197 94.645 .65762 88.349 .65762H12.151C5.8544 .65762 .75002 4.8197 .75002 9.9538V63.414C.75002 68.548 5.8544 72.71 12.151 72.71H27.377V81.026C27.377 84.739 31.069 87.75 35.623 87.75Z"/>
</g>
<path transform="matrix(1,0,0,-1,0,87.75)" stroke-width="1.4979" stroke-linecap="butt" stroke-miterlimit="10" stroke-linejoin="miter" fill="none" stroke="#000000" d="M37.5 37.822C37.5 45.078 42.873 50.961 49.5 50.961 56.127 50.961 61.5 45.078 61.5 37.822 61.5 30.566 56.127 24.683 49.5 24.683 42.873 24.683 37.5 30.566 37.5 37.822Z"/>
</g>
</svg>
